<svg xmlns="http://www.w3.org/2000/svg" viewBox="0 0 1600 700" width="1600" height="700" role="img"><rect width="1600" height="700" fill="#171a1f"/><rect width="1600" height="700" fill="#0e1013"/><path d="M-685.7 700 L14.3 0 L67.1 0 L-632.9 700 Z" fill="#f4f6f71a"/><path d="M-571.4 700 L128.6 0 L181.4 0 L-518.6 700 Z" fill="#f4f6f71a"/><path d="M-457.1 700 L242.9 0 L295.7 0 L-404.3 700 Z" fill="#b6ff2ee6"/><path d="M-342.9 700 L357.1 0 L410 0 L-290 700 Z" fill="#f4f6f71a"/><path d="M-228.6 700 L471.4 0 L524.2 0 L-175.8 700 Z" fill="#f4f6f71a"/><path d="M-114.3 700 L585.7 0 L638.5 0 L-61.5 700 Z" fill="#f4f6f71a"/><path d="M0 700 L700 0 L752.8 0 L52.8 700 Z" fill="#b6ff2ee6"/><path d="M114.3 700 L814.3 0 L867.1 0 L167.1 700 Z" fill="#f4f6f71a"/><path d="M228.6 700 L928.6 0 L981.4 0 L281.4 700 Z" fill="#f4f6f71a"/><path d="M342.9 700 L1042.9 0 L1095.7 0 L395.7 700 Z" fill="#f4f6f71a"/><path d="M457.1 700 L1157.1 0 L1210 0 L510 700 Z" fill="#b6ff2ee6"/><path d="M571.4 700 L1271.4 0 L1324.2 0 L624.2 700 Z" fill="#f4f6f71a"/><path d="M685.7 700 L1385.7 0 L1438.5 0 L738.5 700 Z" fill="#f4f6f71a"/><path d="M800 700 L1500 0 L1552.8 0 L852.8 700 Z" fill="#f4f6f71a"/><path d="M914.3 700 L1614.3 0 L1667.1 0 L967.1 700 Z" fill="#b6ff2ee6"/><path d="M1028.6 700 L1728.6 0 L1781.4 0 L1081.4 700 Z" fill="#f4f6f71a"/><path d="M1142.9 700 L1842.9 0 L1895.7 0 L1195.7 700 Z" fill="#f4f6f71a"/><path d="M1257.1 700 L1957.1 0 L2010 0 L1310 700 Z" fill="#f4f6f71a"/><path d="M1371.4 700 L2071.4 0 L2124.2 0 L1424.2 700 Z" fill="#b6ff2ee6"/><path d="M1485.7 700 L2185.7 0 L2238.5 0 L1538.5 700 Z" fill="#f4f6f71a"/><path d="M1600 700 L2300 0 L2352.8 0 L1652.8 700 Z" fill="#f4f6f71a"/><path d="M1714.3 700 L2414.3 0 L2467.1 0 L1767.1 700 Z" fill="#f4f6f71a"/><path d="M1828.6 700 L2528.6 0 L2581.4 0 L1881.4 700 Z" fill="#b6ff2ee6"/><path d="M1942.9 700 L2642.9 0 L2695.7 0 L1995.7 700 Z" fill="#f4f6f71a"/><path d="M2057.1 700 L2757.1 0 L2810 0 L2110 700 Z" fill="#f4f6f71a"/><path d="M2171.4 700 L2871.4 0 L2924.2 0 L2224.2 700 Z" fill="#f4f6f71a"/><rect x="0" y="434" width="1600" height="70" fill="#f4f6f78c"/></svg>
